HIERARCHY
ROOT Hips
{
	OFFSET 0.000000 89.005402 0.000000
	CHANNELS 6 Xposition Yposition Zposition Xrotation Yrotation Zrotation
	JOINT Spine
	{
		OFFSET 0.116900 10.681000 0.373400
		CHANNELS 3 Xrotation Yrotation Zrotation
		JOINT Spine1
		{
			OFFSET 0.000000 13.840401 0.053500
			CHANNELS 3 Xrotation Yrotation Zrotation
			JOINT Spine2
			{
				OFFSET 0.000000 14.712700 -0.366200
				CHANNELS 3 Xrotation Yrotation Zrotation
				JOINT Neck
				{
					OFFSET 0.000000 35.415497 -3.314200
					CHANNELS 3 Xrotation Yrotation Zrotation
					JOINT Head
					{
						OFFSET 0.000000 16.899200 1.218300
						CHANNELS 3 Xrotation Yrotation Zrotation
						JOINT HeadTop_End
						{
							OFFSET 0.000000 22.206207 2.192500
							CHANNELS 3 Xrotation Yrotation Zrotation
							End Site
							{
								OFFSET 0.000000 22.314178 0.000000
							}
						}
					}
				}
				JOINT LeftShoulder
				{
					OFFSET 12.896400 26.716293 -4.548400
					CHANNELS 3 Xrotation Yrotation Zrotation
					JOINT LeftArm
					{
						OFFSET 19.027000 -4.857010 -1.718400
						CHANNELS 3 Xrotation Yrotation Zrotation
						JOINT LeftForeArm
						{
							OFFSET 24.179897 0.000000 0.000000
							CHANNELS 3 Xrotation Yrotation Zrotation
							JOINT LeftHand
							{
								OFFSET 27.156403 0.000000 0.000000
								CHANNELS 3 Xrotation Yrotation Zrotation
								JOINT LeftHandIndex1
								{
									OFFSET 16.441200 0.000000 0.000000
									CHANNELS 3 Xrotation Yrotation Zrotation
									JOINT LeftHandIndex2
									{
										OFFSET 4.821899 0.000000 0.000000
										CHANNELS 3 Xrotation Yrotation Zrotation
										JOINT LeftHandIndex3
										{
											OFFSET 6.386497 0.000000 0.000000
											CHANNELS 3 Xrotation Yrotation Zrotation
											JOINT LeftHandIndex4
											{
												OFFSET 5.188988 0.000000 0.000000
												CHANNELS 3 Xrotation Yrotation Zrotation
												End Site
												{
													OFFSET -0.178703 5.185913 0.000177
												}
											}
										}
									}
								}
								JOINT LeftHandThumb1
								{
									OFFSET 6.534897 -5.032593 5.900300
									CHANNELS 3 Xrotation Yrotation Zrotation
									JOINT LeftHandThumb2
									{
										OFFSET 3.818176 -2.204422 2.204423
										CHANNELS 3 Xrotation Yrotation Zrotation
										JOINT LeftHandThumb3
										{
											OFFSET 3.252098 -1.877594 1.877601
											CHANNELS 3 Xrotation Yrotation Zrotation
											JOINT LeftHandThumb4
											{
												OFFSET 5.251778 -3.032120 3.032117
												CHANNELS 3 Xrotation Yrotation Zrotation
												End Site
												{
													OFFSET 0.000023 6.780014 0.000000
												}
											}
										}
									}
								}
							}
						}
					}
				}
				JOINT RightShoulder
				{
					OFFSET -12.896300 26.716293 -4.548400
					CHANNELS 3 Xrotation Yrotation Zrotation
					JOINT RightArm
					{
						OFFSET -19.027000 -4.857010 -1.718400
						CHANNELS 3 Xrotation Yrotation Zrotation
						JOINT RightForeArm
						{
							OFFSET -24.179897 0.000000 0.000000
							CHANNELS 3 Xrotation Yrotation Zrotation
							JOINT RightHand
							{
								OFFSET -27.156403 0.000000 0.000000
								CHANNELS 3 Xrotation Yrotation Zrotation
								JOINT RightHandThumb1
								{
									OFFSET -6.591202 -4.852203 5.988100
									CHANNELS 3 Xrotation Yrotation Zrotation
									JOINT RightHandThumb2
									{
										OFFSET -3.818176 -2.204422 2.204423
										CHANNELS 3 Xrotation Yrotation Zrotation
										JOINT RightHandThumb3
										{
											OFFSET -3.252098 -1.877594 1.877601
											CHANNELS 3 Xrotation Yrotation Zrotation
											JOINT RightHandThumb4
											{
												OFFSET -5.251778 -3.032120 3.032117
												CHANNELS 3 Xrotation Yrotation Zrotation
												End Site
												{
													OFFSET -0.000023 6.780014 0.000000
												}
											}
										}
									}
								}
								JOINT RightHandIndex1
								{
									OFFSET -16.029404 0.000000 0.000000
									CHANNELS 3 Xrotation Yrotation Zrotation
									JOINT RightHandIndex2
									{
										OFFSET -5.213303 0.000000 0.000000
										CHANNELS 3 Xrotation Yrotation Zrotation
										JOINT RightHandIndex3
										{
											OFFSET -6.386528 0.000000 0.000000
											CHANNELS 3 Xrotation Yrotation Zrotation
											JOINT RightHandIndex4
											{
												OFFSET -5.189026 0.000000 0.000000
												CHANNELS 3 Xrotation Yrotation Zrotation
												End Site
												{
													OFFSET 0.236702 5.183624 0.001972
												}
											}
										}
									}
								}
							}
						}
					}
				}
			}
		}
	}
	JOINT LeftUpLeg
	{
		OFFSET 14.073000 -7.904099 -1.463000
		CHANNELS 3 Xrotation Yrotation Zrotation
		JOINT LeftLeg
		{
			OFFSET -0.109806 -34.073280 4.093200
			CHANNELS 3 Xrotation Yrotation Zrotation
			JOINT LeftFoot
			{
				OFFSET 0.109806 -29.899420 -6.319000
				CHANNELS 3 Xrotation Yrotation Zrotation
				JOINT LeftToeBase
				{
					OFFSET 1.551100 -14.988700 20.535801
					CHANNELS 3 Xrotation Yrotation Zrotation
					JOINT LeftToe_End
					{
						OFFSET 0.221200 0.570800 13.248301
						CHANNELS 3 Xrotation Yrotation Zrotation
						End Site
						{
							OFFSET 0.000000 13.262435 0.000000
						}
					}
				}
			}
		}
	}
	JOINT RightUpLeg
	{
		OFFSET -13.839300 -7.904099 -1.463000
		CHANNELS 3 Xrotation Yrotation Zrotation
		JOINT RightLeg
		{
			OFFSET 0.109694 -34.073219 4.093300
			CHANNELS 3 Xrotation Yrotation Zrotation
			JOINT RightFoot
			{
				OFFSET -0.109694 -29.899384 -6.319200
				CHANNELS 3 Xrotation Yrotation Zrotation
				JOINT RightToeBase
				{
					OFFSET -1.551100 -14.988700 20.535801
					CHANNELS 3 Xrotation Yrotation Zrotation
					JOINT RightToe_End
					{
						OFFSET -0.221200 0.570900 13.248299
						CHANNELS 3 Xrotation Yrotation Zrotation
						End Site
						{
							OFFSET 0.000000 13.262440 0.000000
						}
					}
				}
			}
		}
	}
}
MOTION
Frames: 5
Frame Time: 0.033333
-72.142517 75.615387 28.203798 -31.580175 81.817545 16.539204 5.558665 4.012442 17.558955 2.356153 0.612091 5.251367 2.335850 0.602176 5.261848 -3.844734 1.377086 -1.891738 -0.230309 5.445001 -9.953189 -0.000000 0.000000 -0.000000 0.971171 -7.327583 1.790689 -7.530003 12.191077 -50.658260 -0.000001 -0.629695 0.000001 -57.163400 4.066934 32.879909 0.048833 0.820217 -6.813109 0.043352 0.772980 -6.419167 0.040728 0.749384 -6.222166 0.000002 -0.000004 0.000000 -3.450190 15.450812 13.804712 4.829591 19.024712 1.553798 0.295884 11.523467 3.479517 -0.000001 0.000000 -0.000000 0.715891 4.290615 9.818277 -56.521755 -24.264855 42.490511 -0.000028 71.401083 0.000026 -23.860714 3.425310 -22.427549 -4.295736 -15.137998 -16.295315 5.473480 -18.005929 -0.859804 -0.458719 -9.045850 -3.046772 0.000000 0.000000 0.000002 0.036838 0.716305 -5.888380 0.005480 -0.276622 2.270539 0.042835 -0.772255 6.350188 -0.000002 -0.000001 0.000001 -4.983980 14.322472 14.106665 75.667759 9.201289 -10.090845 -1.323397 6.787751 -11.362036 -68.051135 5.908879 -4.598871 -0.000000 0.000000 0.000000 -7.236135 -9.956442 13.634548 45.783694 -10.821350 5.110595 -31.422384 -17.159363 0.696178 -1.486824 -0.000014 -0.000000 -0.000000 -0.000002 -0.000000 
-72.710838 77.393227 27.557512 -39.487137 83.843796 26.599603 8.512493 5.167784 16.557857 2.360437 0.646114 4.795657 2.340495 0.657914 4.803580 -5.336807 1.413723 -2.659319 -3.230214 4.553612 -10.537143 -0.000000 -0.000000 0.000000 1.049964 -8.466955 0.879134 -13.570333 4.274787 -48.865817 -0.000001 -0.427011 -0.000006 -53.846268 4.552779 33.105637 0.063852 0.937476 -7.792967 0.050205 0.831702 -6.909068 0.043989 0.778767 -6.467107 -0.000002 -0.000001 -0.000000 -3.450191 15.450810 13.804712 4.829589 19.024701 1.553792 0.295882 11.523467 3.479513 -0.000001 -0.000000 -0.000002 0.816335 7.198705 8.089281 -52.960385 -20.852352 45.940494 -0.000109 68.237845 0.000118 -24.245946 4.233922 -22.960992 -4.295736 -15.137998 -16.295317 5.473480 -18.005929 -0.859805 -0.458717 -9.045851 -3.046772 -0.000000 -0.000004 -0.000000 0.044217 0.784499 -6.451301 0.004202 -0.242372 1.989111 0.040948 -0.755209 6.209470 -0.000001 -0.000000 0.000002 -5.714936 12.373212 12.674248 74.668898 9.295393 -10.121508 -10.743234 7.956480 -8.364029 -54.530653 4.270255 -4.806172 -0.000000 -0.000001 0.000000 -6.408247 -10.651316 11.605964 41.666545 -10.718092 3.919146 -28.566105 -18.669789 1.094052 -1.395601 -0.000004 0.000001 -0.000000 -0.000000 -0.000000 
-73.336967 79.114845 26.894669 -52.558350 85.966578 41.894331 11.341274 6.339688 15.516320 2.218541 0.699075 4.142858 2.200717 0.727409 4.146900 -6.806990 1.347307 -3.239404 -6.271075 3.335860 -10.574322 -0.000000 0.000000 0.000000 1.192636 -9.923300 0.877894 -19.837260 -3.162006 -48.594098 0.000005 -0.314917 0.000005 -51.727864 4.037902 33.350939 0.062423 0.926925 -7.704722 0.049579 0.826423 -6.864939 0.043692 0.776120 -6.445051 0.000002 0.000001 -0.000000 -3.450192 15.450813 13.804711 4.829591 19.024701 1.553796 0.295881 11.523472 3.479515 0.000000 -0.000000 -0.000000 1.000401 9.641580 6.276548 -50.790072 -17.275360 49.240412 -0.000082 65.262273 0.000092 -24.309702 4.885274 -23.389715 -4.295733 -15.137998 -16.295324 5.473482 -18.005926 -0.859802 -0.458716 -9.045851 -3.046772 0.000001 0.000004 0.000001 0.050908 0.841546 -6.922753 0.003268 -0.213652 1.753424 0.039428 -0.740917 6.091593 -0.000001 -0.000000 0.000001 -6.817982 11.480768 11.165297 72.002249 10.399269 -9.988173 -19.683576 9.436855 -2.872337 -37.110494 4.158331 -8.374439 -0.000000 -0.000000 -0.000000 -5.897679 -12.162866 9.471725 37.506061 -10.595619 2.365713 -25.547392 -19.705693 1.825406 -1.274484 -0.000019 -0.000003 -0.000000 0.000000 -0.000000 
-73.923050 80.687027 26.203230 -84.484297 87.861539 76.032880 13.759335 7.383407 14.429352 2.047132 0.770802 3.405804 2.032795 0.806516 3.405577 -8.249559 1.197842 -3.635803 -9.010716 1.888068 -10.385991 0.000000 -0.000000 0.000000 1.429348 -11.877793 1.612256 -26.658676 -9.189354 -49.679910 0.000001 -0.643942 0.000009 -49.751187 2.982912 33.913464 0.046689 0.802087 -6.661788 0.042333 0.763929 -6.343482 0.040246 0.744818 -6.184347 0.000001 0.000002 -0.000001 -3.450190 15.450808 13.804711 4.829593 19.024703 1.553797 0.295881 11.523472 3.479519 0.000001 -0.000003 -0.000003 1.204958 11.334501 4.466886 -50.080682 -13.507261 52.607777 0.000019 61.932966 -0.000006 -24.123738 5.214670 -23.523127 -4.295734 -15.137994 -16.295318 5.473483 -18.005927 -0.859808 -0.458718 -9.045849 -3.046773 0.000002 0.000002 0.000000 0.053814 0.865133 -7.117757 0.002909 -0.201782 1.655949 0.038811 -0.735018 6.042860 -0.000000 0.000001 -0.000003 -8.504314 10.488375 9.849722 67.224088 11.417649 -9.724420 -25.316817 9.747571 2.481906 -21.663881 2.778572 -11.732464 0.000000 -0.000001 0.000000 -5.950502 -13.946200 7.348349 33.570192 -10.465109 0.618821 -22.545606 -20.575704 2.831258 -1.123680 -0.000015 -0.000003 -0.000000 -0.000002 0.000000 
-74.404526 82.215630 25.477949 -155.586081 88.044226 149.327388 15.686064 8.142445 13.115834 1.914408 0.840340 2.761849 1.903629 0.876697 2.757624 -9.675024 1.030351 -3.912610 -11.304084 0.461058 -10.263749 0.000000 0.000000 -0.000000 1.770496 -14.102303 2.895414 -33.760215 -13.750980 -51.699495 -0.000002 -1.523251 0.000002 -47.321924 2.266521 34.784634 0.029445 0.637348 -5.289009 0.033678 0.681558 -5.657100 0.035905 0.703658 -5.841144 -0.000000 -0.000002 0.000001 -3.450191 15.450813 13.804713 4.829592 19.024705 1.553799 0.295879 11.523467 3.479511 0.000001 -0.000001 -0.000000 1.403814 12.325746 2.532601 -50.613577 -9.447689 56.147618 -0.000050 57.856347 0.000045 -24.065321 5.351744 -23.438723 -4.295731 -15.137996 -16.295320 5.473479 -18.005926 -0.859801 -0.458719 -9.045846 -3.046765 0.000001 0.000005 0.000002 0.053566 0.863236 -7.102118 0.002950 -0.202729 1.663764 0.038856 -0.735492 6.046767 0.000001 -0.000001 -0.000003 -10.217546 8.799580 8.458535 59.750898 11.606535 -8.939480 -27.516679 8.815458 5.848758 -12.184344 1.267569 -10.020339 -0.000000 0.000001 0.000000 -6.383330 -14.814907 5.350538 29.482296 -10.341345 -0.956184 -19.407089 -22.040264 3.806003 -0.946953 -0.000007 0.000000 -0.000000 0.000000 0.000000 
